<?xml version="1.0" encoding="UTF-8"?>
<svg width="27px" height="31px" viewBox="0 0 27 31" version="1.1" xmlns="http://www.w3.org/2000/svg" xmlns:xlink="http://www.w3.org/1999/xlink">
    <!-- Generator: Sketch 46.2 (44496) - http://www.bohemiancoding.com/sketch -->
    <title>Paypal</title>
    <desc>Created with Sketch.</desc>
    <defs></defs>
    <g id="Page-1" stroke="none" stroke-width="1" fill="none" fill-rule="evenodd">
        <g id="Paypal" fill-rule="nonzero">
            <g id="Group">
                <path d="M23.675,7.876 C24.053,5.464 23.673,3.823 22.368,2.337 C20.932,0.701 18.338,0 15.019,0 L5.384,0 C4.706,0 4.128,0.494 4.022,1.164 L0.01,26.604 C-0.069,27.107 0.319,27.56 0.827,27.56 L6.775,27.56 L6.364,30.164 C6.295,30.603 6.635,31 7.08,31 L12.094,31 C12.687,31 13.192,30.568 13.285,29.982 L13.334,29.727 L14.278,23.738 L14.339,23.407 C14.432,22.821 14.937,22.388 15.53,22.388 L16.28,22.388 C21.137,22.388 24.94,20.416 26.051,14.708 C26.516,12.324 26.276,10.333 25.048,8.934 C24.676,8.512 24.214,8.162 23.675,7.876 L23.675,7.876" id="Shape" fill="#009CDE"></path>
                <path d="M23.675,7.876 C24.053,5.464 23.673,3.823 22.368,2.337 C20.932,0.701 18.338,0 15.019,0 L5.384,0 C4.706,0 4.128,0.494 4.022,1.164 L0.01,26.604 C-0.069,27.107 0.319,27.56 0.827,27.56 L6.775,27.56 L8.269,18.085 L8.223,18.383 C8.329,17.712 8.901,17.219 9.58,17.219 L12.407,17.219 C17.959,17.219 22.306,14.963 23.577,8.44 C23.614,8.247 23.646,8.061 23.675,7.876" id="Shape" fill="#012169"></path>
                <path d="M9.875,7.908 C9.938,7.505 10.197,7.175 10.545,7.008 C10.703,6.932 10.88,6.89 11.066,6.89 L18.619,6.89 C19.514,6.89 20.348,6.949 21.111,7.072 C21.329,7.107 21.541,7.147 21.747,7.193 C21.953,7.238 22.153,7.289 22.347,7.346 C22.444,7.374 22.539,7.404 22.633,7.435 C23.008,7.56 23.357,7.706 23.677,7.876 C24.055,5.464 23.675,3.823 22.37,2.337 C20.932,0.701 18.338,0 15.019,0 L5.384,0 C4.706,0 4.128,0.494 4.022,1.164 L0.01,26.604 C-0.069,27.107 0.319,27.56 0.827,27.56 L6.775,27.56 L8.269,18.085 L9.875,7.908 Z" id="Shape" fill="#003087"></path>
            </g>
        </g>
    </g>
</svg>