<?xml version="1.0" standalone="no"?>
<!DOCTYPE svg PUBLIC "-//W3C//DTD SVG 20010904//EN"
 "http://www.w3.org/TR/2001/REC-SVG-20010904/DTD/svg10.dtd">
<svg version="1.0" xmlns="http://www.w3.org/2000/svg"
 width="462.000000pt" height="462.000000pt" viewBox="0 0 462.000000 462.000000"
 preserveAspectRatio="xMidYMid meet">
<metadata>
Created by potrace 1.11, written by Peter Selinger 2001-2013
</metadata>
<g transform="translate(0.000000,462.000000) scale(0.100000,-0.100000)"
fill="#000000" stroke="none">
<path d="M2225 4503 c-52 -16 -77 -33 -676 -463 -173 -124 -323 -232 -336
-240 -12 -8 -106 -76 -209 -150 -102 -74 -210 -151 -238 -171 -28 -20 -145
-104 -261 -187 -116 -83 -218 -157 -229 -164 -65 -45 -167 -126 -200 -162 -82
-86 -75 27 -75 -1327 1 -1302 -1 -1260 54 -1354 33 -56 97 -115 158 -144 26
-12 44 -27 41 -32 -3 -6 786 -8 2033 -7 l2038 3 55 22 c81 33 159 107 201 190
l34 68 2 1231 c2 943 -1 1239 -10 1265 -22 61 -137 161 -392 342 -137 98 -257
183 -265 190 -16 12 -753 541 -820 589 -22 15 -181 128 -354 253 -173 124
-332 233 -352 241 -51 21 -140 24 -199 7z"/>
</g>
</svg>
